:SAMPLES-PER-SECOND 30
:FRAME-RANGE 1-2009
:FULLY-SPECIFIED
:DEGREES
1068
root  -70.8954 38.6913 -48.726 -179.133 -1.2829 176.098
RightUpLeg  -29.8204 -19.2427 1.83722
RightLeg  25.4249 -8.04062 -4.35946
RightFoot  -3.64999 -0.210346 2.75818
RightToes  2.96424e-010 1.2921e-014 -6.02303e-014
Spine  -2.7318 -2.04986 -2.61843
Spine1  5.99429 -0.479469 -6.19648
HEad  9.94238 -28.8048 11.2238
LeftShoulder1  2.04026 -5.45784 -16.847
LeftArm  6.01644 -21.9247 -37.1455
LeftForeArm  3.72673 2.23532 -15.3097
LeftHand  -3.0257 -7.94146 26.2444
RightShoulder  1.07998 2.15577 12.7448
RightArm  -52.3988 33.0199 23.448
RightForeArm  -30.2216 -1.27711 -10.0863
RightHand  114.087 -80.8864 -123.551
LeftUpLeg  -2.0104 -0.0486676 -1.18254
LeftLeg  19.8411 -3.0805 -0.158699
LeftFoot  -16.1583 -0.0514444 -3.52454
LeftToes  -1.2485e-010 1.20979e-011 -1.0929e-011
1069
root  -70.6612 38.5708 -50.3895 -179.114 -1.38446 175.419
RightUpLeg  -26.4911 -13.6413 -2.39083
RightLeg  10.1716 -15.8514 -1.68937
RightFoot  -4.62904 -0.121951 1.54227
RightToes  2.96424e-010 1.2921e-014 -6.02303e-014
Spine  -3.51476 -2.53937 -3.19935
Spine1  6.51914 -1.06364 -5.3593
HEad  9.2729 -29.4109 11.6304
LeftShoulder1  2.17889 -6.47986 -15.7409
LeftArm  7.12459 -25.9262 -36.8738
LeftForeArm  0.674965 1.9658 -15.7532
LeftHand  -3.0017 -7.61889 26.6596
RightShoulder  1.05519 2.24823 11.8861
RightArm  -55.2763 31.9467 20.7148
RightForeArm  -31.8478 -0.9381 -11.3841
RightHand  104.375 -79.2223 -116.188
LeftUpLeg  1.3989 1.12002 -1.16177
LeftLeg  18.6516 -4.74611 -0.582767
LeftFoot  -17.3512 -0.121934 -4.30198
LeftToes  -1.2485e-010 1.20979e-011 -1.0929e-011
1070
root  -70.3708 38.3583 -52.2189 -179.388 -1.91223 174.391
RightUpLeg  -23.0941 -5.45493 -8.42787
RightLeg  -2.35629 -23.1903 2.01126
RightFoot  -6.73823 -0.0681739 0.558329
RightToes  2.96424e-010 1.2921e-014 -6.02303e-014
Spine  -3.83272 -3.56637 -4.05902
Spine1  6.02515 -2.23818 -4.79238
HEad  9.96516 -28.8656 10.3633
LeftShoulder1  1.97817 -5.53429 -15.8616
LeftArm  7.10932 -28.8394 -36.3499
LeftForeArm  0.706931 1.04755 -15.5755
LeftHand  -3.00166 -7.54853 26.797
RightShoulder  1.08465 2.52587 11.4538
RightArm  -56.6339 30.8921 19.4816
RightForeArm  -31.0178 -1.98166 -12.5968
RightHand  82.9267 -78.3954 -96.3776
LeftUpLeg  5.31577 2.23636 -1.14684
LeftLeg  17.5586 -6.89316 -1.0269
LeftFoot  -18.1383 -0.208547 -5.33885
LeftToes  -1.2485e-010 1.20979e-011 -1.0929e-011
1071
root  -70.0069 38.1019 -54.0703 -179.941 -1.06291 173.026
RightUpLeg  -23.0425 -5.45483 -9.64069
RightLeg  -3.63411 -22.1296 0.887478
RightFoot  -10.2901 -0.118574 5.30039
RightToes  2.96424e-010 1.2921e-014 -6.02303e-014
Spine  -3.80566 -3.4399 -5.65915
Spine1  5.67553 -2.48248 -3.04369
HEad  10.5809 -28.4413 8.63386
LeftShoulder1  1.94973 -5.76716 -14.8901
LeftArm  3.87693 -29.6893 -37.297
LeftForeArm  3.27998 1.02336 -14.6162
LeftHand  -1.57516 -3.40549 20.8612
RightShoulder  0.994481 2.01706 11.5223
RightArm  -56.6675 28.909 18.3013
RightForeArm  -28.0034 -2.85973 -12.8547
RightHand  58.2013 -77.1467 -71.674
LeftUpLeg  9.53474 2.84414 -1.52684
LeftLeg  16.6626 -7.67221 -1.31021
LeftFoot  -18.2634 -0.299872 -6.76073
LeftToes  -1.2485e-010 1.20979e-011 -1.0929e-011
1072
root  -69.5772 37.848 -55.8046 178.93 0.578217 172.18
RightUpLeg  -25.4881 -8.77357 -9.11701
RightLeg  5.83637 -19.4265 -0.537944
RightFoot  -8.74638 -0.0253604 -1.49429
RightToes  2.96424e-010 1.2921e-014 -6.02303e-014
Spine  -2.00335 -3.15581 -6.11054
Spine1  5.23062 -2.69175 -1.19067
HEad  9.838 -26.8805 8.06585
LeftShoulder1  1.71588 -4.80039 -14.5354
LeftArm  1.37021 -29.0673 -37.8772
LeftForeArm  5.65326 -1.37559 -13.4418
LeftHand  -0.0920101 4.48736 9.86689
RightShoulder  0.958343 1.70642 11.9921
RightArm  -55.1424 26.5648 17.4477
RightForeArm  -22.4459 -3.14217 -12.2375
RightHand  28.9168 -72.433 -40.5717
LeftUpLeg  13.368 1.13094 -2.31995
LeftLeg  17.1532 -5.90934 -1.07643
LeftFoot  -17.9165 -0.484566 -10.279
LeftToes  -1.2485e-010 1.20979e-011 -1.0929e-011
1073
root  -69.0459 37.8927 -57.5873 178.257 0.615799 172.648
RightUpLeg  -25.6149 -11.1503 -7.224
RightLeg  11.9635 -18.7285 -2.82445
RightFoot  -5.71842 0.155646 -3.95362
RightToes  2.96424e-010 1.2921e-014 -6.02303e-014
Spine  -1.74367 -3.71721 -5.48307
Spine1  6.79838 -3.80503 0.821412
HEad  7.68238 -25.2372 9.22398
LeftShoulder1  1.59894 -4.29561 -14.3887
LeftArm  0.38135 -26.46 -37.5288
LeftForeArm  7.74149 -6.24337 -12.1123
LeftHand  -0.0922261 11.976 -0.449357
RightShoulder  0.977281 1.40867 13.7629
RightArm  -53.2682 23.4632 16.1811
RightForeArm  -12.1789 -3.5046 -11.671
RightHand  8.59898 -53.7576 -18.7948
LeftUpLeg  16.3776 -0.379524 -0.963964
LeftLeg  17.5888 -5.86763 -1.62415
LeftFoot  -14.5955 -0.313315 -14.0375
LeftToes  -1.2485e-010 1.20979e-011 -1.0929e-011
